<?xml version="1.0" standalone="no"?>
<svg
  width="600"
  height="600"
  viewBox="0 0 600 600"
  xmlns="http://www.w3.org/2000/svg"
>
  <g transform="translate(300,300)">
    <path d="M107.7,-117.9C149.9,-93,201.5,-68.8,227.8,-24.6C254.2,19.6,255.3,83.8,221.7,115C188.2,146.3,120.1,144.6,62.8,160C5.5,175.4,-41,208,-75.1,198.8C-109.2,189.7,-130.8,138.9,-153.5,92.2C-176.1,45.5,-199.8,3.1,-199.3,-41.2C-198.7,-85.5,-173.9,-131.6,-136.7,-157.4C-99.4,-183.1,-49.7,-188.6,-8.5,-178.5C32.8,-168.4,65.6,-142.8,107.7,-117.9Z" fill="#8ee6ea" />
  </g>
</svg>
    