<?xml version="1.0" standalone="no"?>
<svg
  width="600"
  height="600"
  viewBox="0 0 600 600"
  xmlns="http://www.w3.org/2000/svg"
>
  <g transform="translate(300,300)">
    <path d="M143.6,-202.6C185.3,-167.3,217.7,-124.3,233,-76C248.2,-27.7,246.3,25.9,225.9,68.7C205.5,111.5,166.5,143.5,125.8,166.8C85,190,42.5,204.5,-8,215.6C-58.6,226.6,-117.2,234.3,-162.3,212.4C-207.5,190.6,-239.3,139.3,-245.8,87.4C-252.3,35.4,-233.6,-17.2,-211.6,-63.7C-189.5,-110.2,-164.1,-150.6,-128.3,-187.8C-92.5,-225,-46.2,-259,2.4,-262.2C50.9,-265.4,101.9,-237.9,143.6,-202.6Z" fill="#8ee6ea" />
  </g>
</svg>
    