<?xml version="1.0" standalone="no"?>
<svg
  width="600"
  height="600"
  viewBox="0 0 600 600"
  xmlns="http://www.w3.org/2000/svg"
>
  <g transform="translate(300,300)">
    <path d="M102.8,-136.9C137.9,-116.1,174,-92.2,194.6,-56.6C215.3,-21.1,220.3,26.1,201.5,59.7C182.6,93.3,139.8,113.4,102.2,149.7C64.7,186,32.3,238.5,10.1,224.6C-12.1,210.7,-24.3,130.4,-56.5,92.4C-88.6,54.3,-140.9,58.5,-153.8,44C-166.8,29.5,-140.4,-3.8,-136.2,-52.7C-131.9,-101.6,-149.7,-166.1,-130.7,-192.1C-111.7,-218,-55.8,-205.5,-11,-190.4C33.9,-175.3,67.8,-157.6,102.8,-136.9Z" fill="#8ee6ea" />
  </g>
</svg>
    