<?xml version="1.0" standalone="no"?>
<svg
  width="600"
  height="600"
  viewBox="0 0 600 600"
  xmlns="http://www.w3.org/2000/svg"
>
  <g transform="translate(300,300)">
    <path d="M97.5,-168.8C125.4,-133.7,146.4,-105.1,173.8,-71.6C201.3,-38.1,235.3,0.3,229.9,32.6C224.6,64.9,179.9,91,148.8,131.5C117.7,171.9,100.1,226.5,67,242.9C33.9,259.4,-14.7,237.6,-58.4,216.6C-102,195.7,-140.5,175.4,-159.3,143.7C-178.1,111.9,-177.2,68.6,-184.8,25.7C-192.4,-17.3,-208.5,-60,-205.6,-105.3C-202.6,-150.6,-180.5,-198.5,-143.1,-229.3C-105.6,-260,-52.8,-273.5,-9,-259.5C34.8,-245.5,69.6,-203.9,97.5,-168.8Z" fill="#8ee6ea" />
  </g>
</svg>
    